<svg xmlns="http://www.w3.org/2000/svg" width="17" height="17" viewBox="0 0 17 17">
    <path fill="#000" fill-rule="nonzero" d="M16.74 15.475l-4.115-4.205a6.766 6.766 0 0 0 1.638-4.41c0-3.783-3.132-6.86-6.982-6.86S.299 3.077.299 6.86c0 3.782 3.132 6.86 6.982 6.86a6.993 6.993 0 0 0 4-1.242l4.147 4.237a.912.912 0 0 0 .656.275c.237 0 .461-.089.632-.25a.885.885 0 0 0 .025-1.265zM7.28 1.79c2.847 0 5.162 2.275 5.162 5.07 0 2.796-2.315 5.07-5.161 5.07-2.846 0-5.16-2.274-5.16-5.07 0-2.795 2.314-5.07 5.16-5.07z"/>
</svg>
